<?xml version="1.0" standalone="no"?>
<!DOCTYPE svg PUBLIC "-//W3C//DTD SVG 1.1//EN" "http://www.w3.org/Graphics/SVG/1.1/DTD/svg11.dtd" >
<svg xmlns="http://www.w3.org/2000/svg">
<metadata></metadata>
<defs>
<font id="tr_lucida_handwriting_italic" horiz-adv-x="1382" >
<font-face units-per-em="2048" ascent="1638" descent="-410" />
<missing-glyph horiz-adv-x="691" />
<glyph horiz-adv-x="0" />
<glyph unicode="&#xd;" horiz-adv-x="691" />
<glyph unicode=" "  horiz-adv-x="691" />
<glyph unicode="&#x09;" horiz-adv-x="691" />
<glyph unicode="&#xa0;" horiz-adv-x="691" />
<glyph unicode="!" horiz-adv-x="786" d="M463 240l72 14q72 14 105 14q87 0 87 -91q0 -35 -10 -87l-13 -68l-46 -8q-103 -18 -117 -18q-71 0 -71 74q0 18 4 39l5 26q4 21 4 36q0 41 -20 69zM560 468q0 41 18 132l20 101q73 369 73 673q0 31 -8 70q89 36 118 36q99 0 99 -106q0 -94 -79 -425q-31 -131 -55 -248 l-14 -69q-15 -74 -15 -143q0 -44 14 -86q-67 -14 -86 -14q-85 0 -85 79z" />
<glyph unicode="&#x22;" horiz-adv-x="831" d="M403 1720h24l29 1q157 5 157 -87q0 -17 -13 -130l-10 -87q-13 -113 -13 -141q0 -24 13 -48l-32 -1q-58 -2 -80 26q-18 23 -21 100l-2 56q-8 236 -52 311zM753 1720h24l28 1q158 6 158 -87q0 -27 -13 -130l-11 -87q-13 -103 -13 -134q0 -30 13 -55h-31q-60 0 -80 26 q-18 22 -21 99l-2 56q-8 236 -52 311z" />
<glyph unicode="#" d="M172 378q25 116 75 154.5t170 36.5l108 -1l156 333h-29q-211 0 -324 -60q8 23 17 48q33 91 102 115q40 14 163 14h131l7 17q109 265 109 383q0 41 -10 88q36 12 82 12q77 0 77 -97q0 -105 -113 -364l-17 -39h249l20 39q3 6 32 75q56 135 101 181q65 69 186 69q22 0 47 -6 q-97 -73 -239 -358h23q121 0 224 46q-14 -105 -96 -140q-55 -23 -181 -23h-27l-72 -162q-8 -18 -73 -171h28q182 0 285 90q-8 -129 -109 -178q-73 -36 -220 -36h-35q-62 -198 -62 -343q0 -54 19 -97q-61 -41 -104 -41q-74 0 -74 128q0 117 88 353h-282l-16 -30 q-93 -174 -93 -281q0 -23 8 -57q-45 -14 -88 -14q-73 0 -73 60q0 40 44 150q39 99 68 147l15 25h-31q-150 0 -266 -66zM662 568h270q26 63 78 179q13 29 65 154h-257z" />
<glyph unicode="$" d="M267 255q0 73 117 176q60 -277 331 -311l110 553l-81 60q-227 168 -227 319q0 173 148 287q119 92 309 131q6 54 6 120q0 40 -5 87l20 3q30 4 38 4q71 0 71 -77q0 -25 -14 -99q-2 -11 -8 -38q269 0 269 -129q0 -53 -54 -132q-72 134 -235 159l-108 -545l60 -41 q255 -174 255 -322q0 -346 -478 -452q-21 -128 -21 -208q0 -22 3 -70q-113 10 -113 80q0 22 24 152l7 38q-142 0 -266 57q-158 72 -158 198zM701 1100q0 -93 166 -216l97 485q-113 -21 -184 -87q-79 -74 -79 -182zM814 121q281 57 281 268q0 83 -184 222z" />
<glyph unicode="%" horiz-adv-x="1703" d="M313 1002q0 112 71 229q80 132 185 132q47 0 75 -52q-88 -35 -140 -122q-49 -82 -49 -180q0 -75 47.5 -125.5t121.5 -50.5q111 0 173 107q51 89 51 209q0 30 -8 71q-146 59 -146 124q0 53 85 129q93 -153 338 -153q284 0 471 153l22 18q55 45 82 45q38 0 75 -53 q-246 -208 -742 -810q-241 -292 -328 -413q-218 -301 -243 -460q-112 54 -112 145q0 124 420 606q488 560 663 733q-174 -87 -344 -87q-32 0 -92 6q2 -17 2 -25q0 -178 -104 -306q-111 -138 -285 -138q-122 0 -204 72q-85 76 -85 196zM1012 289q0 163 105 265q98 97 264 118 q40 50 89 50q87 0 152 -115q57 -100 57 -194q0 -165 -112 -287q-116 -126 -279 -126q-123 0 -201 84q-75 81 -75 205zM1154 298q0 -193 163 -193q98 0 162 84q59 77 59 178q0 134 -100 221q-26 3 -40 3q-103 0 -176 -97q-68 -90 -68 -196z" />
<glyph unicode="&#x26;" horiz-adv-x="1769" d="M190 369q0 366 477 523q-160 79 -160 258q0 178 169 281q143 87 333 87q98 0 186 -29q124 -40 124 -118q0 -51 -61 -107q-84 155 -276 155q-118 0 -200 -60q-91 -67 -91 -181q0 -121 133 -222q88 19 152 19q59 0 122 -19q-57 -160 -201 -160q-60 0 -129 31 q-157 -57 -260 -168q-118 -126 -118 -279q0 -141 123 -220q106 -67 255 -67q178 0 384 133q225 147 225 315q0 81 -84 115l-27 11q-47 19 -47 60q0 46 40 125q126 -56 374 -56q131 0 263 31q-37 -109 -94 -149.5t-173 -40.5q-22 0 -72 4q-121 -346 -121 -557q0 -161 57 -248 q-68 -64 -150 -64q-65 0 -65 103q0 118 52 383q-277 -295 -635 -295q-211 0 -348 95q-157 110 -157 311z" />
<glyph unicode="'" horiz-adv-x="532" d="M359 1680q77 41 164 41q111 0 111 -71q0 -15 -18 -105l-13 -65q-36 -180 -36 -223q0 -38 23 -67q-34 -12 -58 -12q-77 0 -85 127l-5 78q-15 232 -83 297z" />
<glyph unicode="(" horiz-adv-x="1329" d="M443 435q0 516 418 948q105 108 265 223q203 146 301 146q50 0 80 -72q-373 -140 -620 -500t-247 -759q0 -236 122 -404q133 -183 360 -201q-109 -112 -223 -112q-215 0 -348 271q-108 222 -108 460z" />
<glyph unicode=")" horiz-adv-x="1095" d="M97 -224q372 139 619.5 499t247.5 759q0 236 -122 404q-133 184 -360 202q108 112 223 112q215 0 348 -272q108 -221 108 -460q0 -515 -418 -947q-104 -108 -265 -223q-204 -146 -301 -146q-50 0 -80 72z" />
<glyph unicode="*" horiz-adv-x="993" d="M403 1093q0 51 261 192q-232 119 -232 201q0 57 64 96q59 -112 211 -230l8 152q7 133 41 171q40 45 158 52q-74 -171 -122 -375q201 128 269 128q61 0 71 -128q-26 17 -53 17q-101 0 -280 -104q85 -50 165 -120q114 -98 114 -156q0 -49 -100 -62q-53 132 -214 285 q-7 -72 -7 -150q0 -126 26 -227q-148 0 -148 98q0 69 41 267q-161 -119 -195 -207q-78 46 -78 100z" />
<glyph unicode="+" d="M239 456q36 165 120 199q41 17 254 17h136l21 107q23 117 23 212q0 89 -59 141q35 4 51 4q170 0 170 -126q0 -45 -39 -242l-19 -96h95q297 0 388 66q-26 -164 -134 -200q-43 -14 -268 -14h-111l-12 -61q-31 -158 -31 -258q0 -75 37 -135q-14 -2 -21 -4q-55 -10 -82 -10 q-109 0 -109 92q0 33 23 143l47 233h-113q-239 0 -367 -68z" />
<glyph unicode="," horiz-adv-x="714" d="M193 -209q33 -7 55 -7q77 0 126 66q45 61 45 140q0 125 -124 210q105 72 189 72q139 0 139 -161q0 -142 -100 -279q-108 -147 -246 -147q-70 0 -84 106z" />
<glyph unicode="-" horiz-adv-x="985" d="M498 519q57 176 183 176q23 0 50 -3l109 -12q27 -3 62 -3q80 0 115 44q-30 -195 -140 -195q-29 0 -62 4l-74 9q-82 10 -121 10q-62 0 -122 -30z" />
<glyph unicode="." horiz-adv-x="673" d="M319 240l72 14q72 14 105 14q87 0 87 -91q0 -35 -10 -87l-13 -68l-46 -8q-103 -18 -117 -18q-71 0 -71 74q0 18 4 39l5 26q4 21 4 36q0 41 -20 69z" />
<glyph unicode="/" horiz-adv-x="934" d="M153 -153q0 156 360 861l97 190q76 158 153 315q120 236 228 365q146 174 284 174q33 0 72 -9q-309 -256 -703 -1080l-43 -90q-293 -613 -293 -823q0 -19 3 -46q-158 55 -158 143z" />
<glyph unicode="0" d="M222 507q0 368 201 669q227 341 578 341q224 0 340 -170q100 -146 100 -382q0 -371 -205 -668q-229 -334 -585 -334q-215 0 -330 171q-99 147 -99 373zM439 562q0 -488 294 -488q234 0 376 321q114 255 114 521q0 488 -300 488q-234 0 -374 -321q-110 -253 -110 -521z " />
<glyph unicode="1" d="M316 120q52 -26 104 -26q108 0 218 26l221 1114q-165 -81 -261 -81q-144 0 -144 186v28q60 -53 139 -53q131 0 445 171q12 7 72 34l-266 -1367q109 15 167 15q127 0 171 -37q49 -42 49 -165q-53 35 -143 35q-103 0 -240 -17l-145 -18q-49 -6 -184 -27q-39 -6 -75 -6 q-110 0 -128 188z" />
<glyph unicode="2" d="M236 75q0 28 7 81q271 178 515 443q312 340 312 576q0 194 -214 194q-243 0 -427 -277q-12 58 -12 94q0 141 193 244q164 87 319 87q147 0 246 -66q114 -76 114 -216q0 -371 -814 -1047q340 46 564 46q165 0 216.5 -48.5t64.5 -212.5q-153 70 -415 70q-202 0 -426 -33 l-61 -9q-88 -13 -110 -13q-72 0 -72 87z" />
<glyph unicode="3" d="M301 166q0 23 5 71q149 -151 380 -151q154 0 264 89q118 96 118 246q0 122 -88 188q-62 46 -202 80q-61 -17 -113 -17q-86 0 -151 44q63 148 183 148q44 0 105 -14q306 97 306 338q0 98 -73 157q-67 55 -168 55q-159 0 -273 -138l-1 39q-3 101 91 160q90 56 254 56 q154 0 254 -68q116 -78 116 -225q0 -255 -343 -413q306 -86 306 -361q0 -226 -186 -363q-168 -124 -402 -124q-382 0 -382 203z" />
<glyph unicode="4" d="M234 522q0 40 13 115q304 414 423 886q95 25 149 25q49 0 49 -36q0 -91 -211 -441q-152 -253 -280 -434q289 55 535 75l90 450q14 66 14 103q0 41 -8 72q57 20 103 20q93 0 93 -89q0 -34 -29 -170l-21 -100l-57 -286q45 4 80 4q158 0 208 -51q45 -47 59 -209 q-122 68 -381 83l-31 -155q-35 -175 -35 -267q0 -72 26 -118q-74 -36 -134 -36q-92 0 -92 119q0 56 38 244l43 213q-158 -12 -351 -42l-52 -8q-130 -20 -167 -20q-74 0 -74 53z" />
<glyph unicode="5" d="M328 174q0 22 4 63q156 -151 377 -151q163 0 275 121q109 117 109 282t-115 256q-105 82 -275 82q-112 0 -215 -22l148 703q138 -28 285 -28q254 0 442 62q-38 -133 -131 -185q-78 -43 -228 -43q-148 0 -267 17l-96 -346q84 14 139 14q220 0 361 -132q144 -135 144 -354 q0 -242 -173 -399q-168 -151 -412 -151q-372 0 -372 211z" />
<glyph unicode="6" d="M297 510q0 381 176 668q207 339 565 339q106 0 187 -30q113 -42 113 -131q0 -24 -10 -73q-125 99 -294 99q-217 0 -363 -229q-115 -181 -150 -427q140 205 387 205q174 0 288.5 -114.5t114.5 -288.5q0 -225 -162 -395t-386 -170q-222 0 -350 167q-116 151 -116 380z M493 527q0 -224 67 -328q88 -137 225 -137q149 0 247 156q86 136 86 294q0 117 -66 192q-69 79 -184 79q-251 0 -375 -256z" />
<glyph unicode="7" d="M430 31q0 126 116 376q97 210 196 350q238 338 491 532l-422 -1q-206 -4 -289 17q-69 17 -69 72q0 23 6 50q3 13 10 44l11 59q79 -49 224 -47l65 1l296 -4h368l-38 -191q-282 -245 -485 -563q-244 -381 -244 -689q0 -61 15 -134q-30 -8 -56 -8q-195 0 -195 136z" />
<glyph unicode="8" d="M267 329q0 272 411 496q-198 163 -198 329q0 176 142 275q124 88 308 88q161 0 275 -70q135 -84 135 -235q0 -265 -329 -405l42 -32q249 -190 249 -379q0 -209 -174 -328q-153 -105 -371 -105q-196 0 -330 83q-160 99 -160 283zM467 347q0 -123 107 -207q100 -78 226 -78 q125 0 213.5 83t88.5 207q0 158 -285 360l-62 44q-288 -168 -288 -409zM676 1207q0 -126 197 -288l56 -46q216 107 216 312q0 104 -70.5 169t-175.5 65q-92 0 -157.5 -60t-65.5 -152z" />
<glyph unicode="9" d="M339 125q0 25 11 73q126 -100 294 -100q217 0 363 230q115 181 150 427q-140 -206 -387 -206q-174 0 -289 114.5t-115 288.5q0 226 162 395.5t387 169.5q222 0 350 -167q116 -151 116 -380q0 -381 -176 -669q-208 -338 -566 -338q-107 0 -187 30q-113 42 -113 132z M560 968q0 -117 66 -192q69 -79 184 -79q251 0 375 257q0 224 -67 328q-88 137 -225 137q-149 0 -247 -157q-86 -136 -86 -294z" />
<glyph unicode=":" horiz-adv-x="673" d="M319 240l72 14q72 14 105 14q87 0 87 -91q0 -35 -10 -87l-13 -68l-46 -8q-103 -18 -117 -18q-71 0 -71 74q0 18 4 39l5 26q4 21 4 36q0 41 -20 69zM501 1157l72 14q72 14 106 14q86 0 86 -92q0 -34 -10 -86l-13 -68l-46 -8q-103 -18 -116 -18q-71 0 -71 73q0 19 4 40 l5 26q3 16 3 36q0 41 -20 69z" />
<glyph unicode=";" horiz-adv-x="714" d="M193 -209q33 -7 55 -7q77 0 126 66q45 61 45 140q0 125 -124 210q105 72 189 72q139 0 139 -161q0 -142 -100 -279q-108 -147 -246 -147q-70 0 -84 106zM465 1157l71 14q71 14 107 14q86 0 86 -92q0 -37 -10 -86l-14 -68l-45 -8q-101 -18 -117 -18q-71 0 -71 73 q0 19 4 40l5 26q3 16 3 36q0 41 -19 69z" />
<glyph unicode="&#x3c;" d="M232 636q311 78 638 218q372 159 585 327q-11 -204 -140 -281q-261 -156 -776 -318q280 -99 403 -164q280 -146 280 -295q0 -42 -19 -93q-182 209 -653 401l-98 40q-108 44 -131 59q-49 32 -89 106z" />
<glyph unicode="=" d="M200 271q36 165 120 200q41 17 254 17h379q297 0 388 65q-26 -164 -134 -199q-42 -14 -268 -14h-372q-240 0 -367 -69zM325 623q26 132 77.5 177.5t183.5 45.5q35 0 94 -3q78 -4 104 -4h122q339 0 467 67q-40 -145 -142 -187q-66 -28 -247 -28h-214q-347 0 -445 -68z" />
<glyph unicode="&#x3e;" d="M219 22q14 170 180 294q124 93 355 172q175 56 349 111q-200 83 -408 199q-112 63 -153 102q-69 67 -69 162q0 53 10 107q131 -159 435 -322q252 -134 504 -213q-52 -84 -244 -158l-108 -42q-36 -14 -156 -60q-436 -165 -695 -352z" />
<glyph unicode="?" horiz-adv-x="1135" d="M525 1211q0 127 181 223q155 83 295 83q141 0 224 -69q89 -74 89 -211q0 -184 -263 -390l-37 -29q-225 -176 -225 -338q0 -43 25 -88q-34 -22 -84 -22q-122 0 -122 104q0 149 216 322l45 36q242 194 242 355q0 189 -204 189q-208 0 -362 -244q-20 36 -20 79zM572 240 l72 14q72 14 106 14q86 0 86 -92q0 -34 -10 -86l-13 -68l-46 -8q-103 -18 -117 -18q-71 0 -71 74q0 18 4 39l5 26q4 21 4 38q0 39 -20 67z" />
<glyph unicode="@" horiz-adv-x="1906" d="M229 520q0 423 323 736q320 311 744 311q284 0 481 -175q204 -182 204 -463q0 -215 -121 -376q-133 -177 -341 -177q-200 0 -200 265q0 35 5 103q-276 -430 -494 -430q-184 0 -184 247q0 229 131 408q144 197 366 197q128 0 262 -75q37 49 134 49q18 0 58 -2 q-128 -192 -128 -472q0 -154 108 -154q136 0 224 146q76 126 76 270q0 236 -174 388q-166 146 -405 146q-380 0 -651 -272t-271 -652q0 -271 161 -440q164 -172 434 -172q266 0 528 219q-16 -114 -56 -164q-61 -76 -219 -119q-128 -35 -253 -35q-329 0 -531 180 q-211 188 -211 513zM805 618q0 -156 95 -156q77 0 253 215q122 149 208 287q-116 97 -229 97q-144 0 -242 -155q-85 -136 -85 -288z" />
<glyph unicode="A" horiz-adv-x="1560" d="M72 454q47 169 242 169h11l124 -3l27 40q170 252 480 635q105 130 157 163q60 38 215 65q-29 -180 -29 -335q0 -410 95 -833q52 -232 159 -299q-94 -93 -161 -93q-158 0 -244 542q-165 -18 -296 -18h-37l-273 5l-20 -38q-126 -239 -126 -364q0 -38 29 -74 q-16 -5 -108 -39q-38 -14 -74 -14q-70 0 -70 67q0 139 173 424l31 51h-51q-164 0 -254 -51zM614 610l202 -5q31 -1 62 0q137 0 255 14q-46 351 -46 557v25l1 75q-20 -26 -148 -182q-191 -234 -305 -445z" />
<glyph unicode="B" horiz-adv-x="1544" d="M168 1059q0 213 356 350q281 108 534 108q153 0 266 -53q149 -68 149 -204q0 -213 -303 -400q154 -42 254 -124q124 -102 124 -241q0 -284 -325 -449q-263 -133 -575 -133q-275 0 -275 173q0 41 30 192l141 709q17 85 17 121q0 35 -24 64q132 50 185 50q62 0 62 -71 q0 -10 -33 -176l-131 -657q-22 -110 -22 -149q0 -126 240 -126q181 0 321 100q157 112 157 286q0 139 -104 214q-75 55 -234 88q-65 -26 -142 -26q-26 0 -65 9q28 102 67 139q46 42 146 42q25 0 67 -3q213 156 213 309q0 181 -276 181q-447 0 -794 -427q-26 55 -26 104z" />
<glyph unicode="C" horiz-adv-x="1450" d="M229 520q0 396 254 690q265 307 655 307q116 0 220 -38q140 -52 140 -148q0 -70 -90 -154q-121 242 -343 242q-276 0 -453 -295q-152 -252 -152 -547q0 -203 98 -328q107 -138 304 -138q316 0 580 301q19 -45 19 -71q0 -159 -270 -278q-226 -100 -409 -100 q-258 0 -405.5 149.5t-147.5 407.5z" />
<glyph unicode="D" horiz-adv-x="1773" d="M168 1052q0 223 356 359q277 106 542 106q329 0 539 -135q248 -160 248 -471q0 -375 -327 -661q-176 -153 -434.5 -248t-494.5 -95q-228 0 -228 171q0 60 39 256l130 653q17 85 17 121q0 35 -24 64q133 50 185 50q62 0 62 -72q0 -14 -32 -175l-109 -547 q-41 -206 -41 -263q0 -71 66 -92q34 -11 127 -11q349 0 594 207q259 219 259 562q0 270 -196 420q-178 137 -456 137q-245 0 -455 -119q-205 -116 -343 -324q-24 52 -24 107z" />
<glyph unicode="E" horiz-adv-x="1270" d="M185 1239q50 161 137 206q67 35 419 35h298q282 0 458 56q-83 -131 -167 -161q-52 -18 -240 -18h-323l-99 -493h207q217 0 346 55q-71 -133 -144 -161q-46 -18 -226 -18h-207l-51 -257q-32 -161 -32 -227q0 -133 258 -133q256 0 451 91q-45 -150 -149 -185 q-73 -25 -227 -46q-146 -20 -232 -20q-327 0 -327 217q0 62 32 223l67 337h-15q-101 0 -196 -44q49 97 74 122q45 46 129 46h33l98 493h-29q-185 0 -343 -118z" />
<glyph unicode="F" horiz-adv-x="1255" d="M276 1232q39 158 135 211q67 37 422 37h263q294 0 489 52q-63 -110 -136 -148q-65 -34 -187 -34h-14l-88 1h-306l-119 -598h216q201 0 332 51q-52 -123 -138 -155q-54 -20 -218 -20h-216l-138 -691q-19 -95 -19 -123t13 -60q-101 -51 -185 -51q-52 0 -52 42q0 23 20 124 l151 759h-15q-90 0 -194 -43q44 96 74 124q44 43 132 43h27l120 598h-22q-218 0 -347 -119z" />
<glyph unicode="G" horiz-adv-x="1469" d="M228 546q0 398 336 690q323 281 727 281q277 0 277 -111q0 -47 -96 -157q-15 -17 -28 -33q-70 166 -287 166q-303 0 -515 -241q-204 -232 -204 -539q0 -198 97 -325q107 -141 299 -141q161 0 282.5 122.5t158.5 323.5l8 43q-309 0 -495 -85q38 128 91 162q58 36 244 51 l125 10q147 12 290 51l-158 -586q-34 -133 -67 -266q-36 -112 -101 -160q-77 -55 -245 -66q110 148 233 468q-214 -204 -441 -204q-234 0 -384 157q-147 154 -147 389z" />
<glyph unicode="H" horiz-adv-x="1771" d="M168 634q44 126 124 169q66 36 211 36h35l103 519q-88 -13 -164 -13q-158 0 -187 208q72 -60 194 -60q159 0 400 31l-137 -685h526q95 429 200 634q58 113 110 145q47 28 180 38q14 1 51 4q-237 -272 -336 -821h18q78 0 194 71q-24 -194 -193 -194h-44q-30 -156 -30 -329 q0 -288 177 -288q73 0 162 62q-15 -198 -260 -198q-287 0 -287 438q0 148 34 315h-526l-125 -630q-20 -101 -20 -131q0 -21 12 -52q-101 -51 -183 -51q-53 0 -53 42q0 24 20 124l139 698h-41q-147 0 -304 -82z" />
<glyph unicode="I" horiz-adv-x="1117" d="M171 124q71 -39 148 -39q42 0 140 15l248 1244q-108 -18 -187 -18q-138 0 -138 162q39 -26 98 -26q73 0 210 26l158 30q158 30 252 30q135 0 156 -181q-56 27 -117 27q-82 0 -173 -14q-12 -2 -44 -6l-247 -1243q191 25 271 25q130 0 130 -181q-73 25 -154 25 q-77 0 -191 -15l-228 -30q-129 -17 -171 -17q-90 0 -126 49q-29 40 -35 137z" />
<glyph unicode="J" horiz-adv-x="1105" d="M-240 -208q0 95 135 175q0 -118 73 -184.5t192 -66.5q215 0 324 231q52 111 113 419l194 976q-143 -28 -180 -28q-128 0 -143 161q44 -25 106 -25q85 0 261 38l97 21q125 27 224 27q113 0 160 -49q43 -44 59 -160q-90 61 -210 61q-64 0 -158 -15l-176 -886 q-70 -354 -228 -592q-208 -314 -516 -314q-101 0 -205 55q-122 64 -122 156z" />
<glyph unicode="K" horiz-adv-x="1512" d="M190 1546q72 -59 194 -59q153 0 400 30l-145 -729q573 390 675 737q142 -73 142 -156q0 -61 -284 -299q-215 -179 -355 -275q126 -237 271 -444q232 -332 358 -332q102 0 225 113l1 -26q3 -73 -103.5 -154.5t-204.5 -81.5q-256 0 -738 854l-105 -527q-19 -95 -19 -123 t13 -60q-103 -51 -185 -51q-52 0 -52 42q0 21 21 127l242 1219q-88 -12 -164 -12q-157 0 -187 207z" />
<glyph unicode="L" horiz-adv-x="1252" d="M322 181q0 60 34 231l195 982q17 86 17 122q0 34 -24 63q133 50 185 50q62 0 62 -71q0 -10 -33 -176l-174 -877q-38 -192 -38 -263q0 -125 277 -125q247 0 509 101q-41 -122 -108 -164q-48 -30 -197 -58q-183 -33 -386 -33q-319 0 -319 218z" />
<glyph unicode="M" horiz-adv-x="1918" d="M250 45q0 92 60 323l221 852l-41 126q-68 210 -136 257q95 61 169 61q73 0 155 -236q42 -146 84 -291q25 -84 35 -112l18 -50q159 -443 265 -443q148 0 366 397q200 364 215 551q111 37 164 37q98 0 98 -108q0 -40 -23 -200q-22 -150 -31 -239l-69 -652q-7 -66 -7 -134 q0 -199 81 -248q-103 -72 -176 -72q-119 0 -119 247q0 99 15 242l87 827q-87 -263 -242 -513q-214 -348 -401 -348q-147 0 -280 263q-84 165 -143 388l-131 -657q-25 -125 -25 -199q0 -75 63 -117q-109 -34 -170 -34q-102 0 -102 82z" />
<glyph unicode="N" horiz-adv-x="1667" d="M261 66q0 99 119 609l149 638l-29 78q-59 159 -148 191q154 71 194 71q91 0 237 -335q79 -204 158 -407q293 -693 386 -693q92 0 154 405q46 303 46 495q0 250 -119 329q98 70 177 70q119 0 119 -194t-56 -507q-49 -277 -113 -500q-102 -353 -227 -353q-141 0 -339 375 q-66 123 -222 489q-66 154 -91 209l-33 72l-127 -640q-36 -181 -36 -275q0 -139 79 -195q-91 -35 -166 -35q-112 0 -112 103z" />
<glyph unicode="O" horiz-adv-x="1770" d="M244 583q0 290 192 500q196 214 484 227q155 207 409 207q228 0 368 -167q131 -158 131 -390q0 -377 -299 -687t-675 -310q-268 0 -439 175.5t-171 444.5zM460 646q0 -232 131 -388q139 -166 366 -166q286 0 481 272q177 247 177 543q0 169 -85 297q-97 147 -258 147 q-155 0 -262 -126q-101 -120 -101 -277q0 -116 55 -214q-105 19 -141 55q-41 41 -41 142q0 129 62 270q-189 -46 -291 -205q-93 -146 -93 -350z" />
<glyph unicode="P" horiz-adv-x="1406" d="M213 711q0 23 10 59q108 -89 262 -129l69 346q17 85 17 121q0 35 -24 64q133 50 185 50q62 0 62 -72q0 -9 -33 -175l-70 -352q259 0 442 121q212 139 212 385q0 135 -111 208q-95 63 -237 63q-468 0 -751 -392q-24 62 -24 97q0 190 349 314q275 98 507 98q478 0 478 -352 q0 -257 -248 -449q-249 -192 -562 -192h-19l-55 1l-88 -439q-19 -95 -19 -123t13 -60q-103 -51 -185 -51q-52 0 -52 42q0 25 20 125l105 524q-253 57 -253 168z" />
<glyph unicode="Q" horiz-adv-x="1766" d="M245 585q0 291 194 500t484 224q167 208 414 208q229 0 368 -174q128 -161 128 -396q0 -299 -196 -551q-177 -226 -468 -364q296 -257 670 -346q-109 -106 -223 -106q-102 0 -310 164q-145 114 -270 245q-92 -26 -182 -26q-265 0 -437 178t-172 444zM459 643 q0 -234 128 -381q130 -152 361 -170q-154 150 -154 234q0 70 81 140q52 -189 211 -357q238 70 389 312q141 226 141 485q0 170 -85 291q-95 136 -259 136q-133 0 -226 -92q-94 -93 -94 -216v-8l1 -40q-115 20 -115 111q0 55 25 114q-200 -40 -306 -200q-98 -147 -98 -359z " />
<glyph unicode="R" horiz-adv-x="1640" d="M168 1063q0 205 356 343q284 111 529 111q496 0 496 -316q0 -178 -160 -308q-97 -79 -318 -176q239 -545 412 -545q91 0 195 128q5 -25 5 -35q0 -89 -100 -177t-190 -88q-234 0 -499 638q-53 -15 -96 -15q-21 0 -39 8q37 189 188 189q30 0 74 -12q328 110 328 365 q0 110 -118 168q-93 47 -214 47q-239 0 -461 -116q-235 -121 -347 -321q-41 47 -41 112zM332 -106q0 9 23 125l192 968q17 86 17 121t-24 64q133 50 185 50q63 0 63 -72q0 -9 -33 -175l-177 -889q-19 -95 -19 -131q0 -21 10 -52q-102 -51 -185 -51q-52 0 -52 42z" />
<glyph unicode="S" horiz-adv-x="1147" d="M133 165q0 83 135 184q0 -161 88.5 -255t248.5 -94q128 0 232 75q114 82 114 206q0 123 -227 333l-110 102q-211 196 -211 361q0 207 167 330q150 110 365 110q93 0 167 -25q108 -35 108 -110q0 -59 -54 -137q-87 168 -283 168q-118 0 -201 -71q-88 -75 -88 -191 q0 -86 65 -160q1 -1 133 -123l90 -83q246 -227 246 -411q0 -229 -186 -367q-168 -124 -405 -124q-149 0 -260 65q-134 78 -134 217z" />
<glyph unicode="T" horiz-adv-x="1359" d="M261 1281q35 141 113 177q49 22 221 22h677q273 0 361 197q35 -59 35 -95q0 -130 -161 -209q-96 -47 -368 -47h-120l-225 -1129q-19 -95 -19 -123t13 -60q-103 -51 -185 -51q-52 0 -52 42q0 23 20 124l238 1197h-139q-237 0 -409 -45z" />
<glyph unicode="U" horiz-adv-x="1743" d="M227 1546q75 -59 194 -59q68 0 454 35q-353 -690 -353 -1053q0 -117 55 -200q63 -96 175 -96q292 0 544 544q25 158 51 317q37 185 111 276q95 118 271 118q-107 -137 -193 -540q-76 -356 -76 -583q0 -207 126 -207q79 0 186 85q4 -24 4 -36q0 -78 -94 -135 q-83 -49 -166 -49q-269 0 -269 342q0 48 10 140q-301 -433 -591 -433q-165 0 -266 122q-95 114 -95 283q0 353 274 937q-83 -16 -154 -16q-99 0 -145 56q-37 46 -53 152z" />
<glyph unicode="V" horiz-adv-x="1372" d="M184 1514q101 108 167 108q126 0 240 -406q150 -532 150 -991q628 839 628 1150q0 44 -23 85q84 57 172 57q80 0 80 -77q0 -170 -265 -591q-163 -259 -383 -549q-140 -185 -184 -224q-95 -86 -255 -115q19 108 19 256q0 332 -120 836q-48 202 -69 256q-55 141 -157 205z " />
<glyph unicode="W" horiz-adv-x="1942" d="M209 1573q102 25 148 25q84 0 130 -144q3 -9 44 -211q73 -357 106 -970q334 688 545 1079q8 1 19 3q43 9 57 9q83 0 83 -79q0 -17 -5 -57q-35 -276 -40 -480l-4 -182v-35q0 -340 114 -340q130 0 266 272q151 303 151 710q0 175 -87 326q72 18 131 18q102 0 140 -67 q28 -50 28 -163q0 -411 -237 -838q-85 -154 -201 -279q-159 -171 -283 -171q-145 0 -188 230q-19 98 -19 336q0 125 13 384q-260 -450 -368 -690l-33 -73q-63 -140 -112 -177q-42 -31 -197 -51q26 102 26 267q0 343 -49 689q-61 438 -178 659z" />
<glyph unicode="X" horiz-adv-x="1402" d="M146 113q0 92 180 307q131 155 258 271l56 51l-26 45q-75 131 -144 316q-75 200 -75 268q0 98 129 139l47 15q8 -108 86 -319q68 -186 134 -307l19 -35l33 24q131 95 225 254q88 149 88 275q0 25 -7 52l27 14q66 34 125 34q61 0 61 -63q0 -126 -133 -311 q-124 -172 -341 -345l-30 -24l20 -40q94 -187 255 -378q87 -103 137 -140q82 -59 182 -59q37 0 85 19q-122 -195 -240 -195q-120 0 -300 203q-184 207 -286 421l-21 44l-28 -30q-339 -363 -357 -656l-56 35q-103 64 -103 115z" />
<glyph unicode="Y" horiz-adv-x="1196" d="M157 1500q105 73 159 73q192 0 450 -785q140 123 288 290q206 234 206 329q0 41 -33 72q85 38 134 38q82 0 82 -87q0 -123 -265 -399q-199 -205 -375 -339l-98 -495q-19 -96 -19 -123q0 -28 12 -60q-102 -51 -184 -51q-53 0 -53 42q0 19 21 125l111 562q-51 228 -155 444 q-131 274 -281 364z" />
<glyph unicode="Z" horiz-adv-x="1313" d="M120 69q0 21 19 106q325 430 979 1104q11 11 95 101l-431 -27q-153 -8 -209 -8q-223 0 -223 156q0 18 4 93q91 -114 449 -114h126q292 0 474 35q-16 -106 -33 -145q-21 -51 -88 -118q-590 -590 -933 -1056q123 8 239 8q462 0 618 -74q77 -37 77 -176q0 -21 -5 -67 q-145 87 -359 118q-140 20 -380 20q-87 0 -234 -13l-34 -3l-65 -7q-86 0 -86 67z" />
<glyph unicode="[" horiz-adv-x="1113" d="M450 -85q0 84 30 235l314 1577h260q198 0 276 29q-31 -86 -64 -114q-39 -34 -124 -33l-89 1h-104l-296 -1489q-30 -151 -30 -220q0 -127 201 -127q73 0 145 28q-26 -86 -74 -112q-38 -21 -136 -21q-309 0 -309 246z" />
<glyph unicode="\" horiz-adv-x="1012" d="M269 1735q53 17 88 17q136 0 217 -260q124 -397 267 -1006l77 -327q45 -188 45 -257q0 -126 -165 -215q10 57 10 115q0 333 -178 1001q-187 701 -361 932z" />
<glyph unicode="]" horiz-adv-x="1113" d="M214 -331q31 86 64 114q39 34 124 33l89 -1h104l296 1489q30 151 30 220q0 127 -201 127q-72 0 -145 -28q26 85 73 112q39 21 136 21q310 0 310 -246q0 -84 -30 -235l-314 -1577h-260q-200 0 -276 -29z" />
<glyph unicode="^" d="M184 389q207 193 433 510q245 345 323 581q74 -29 102 -96q5 -12 36 -146l18 -78q106 -459 293 -771q-141 0 -242 151q-75 113 -132 322l-70 298q-144 -283 -366 -554q-104 -127 -168 -166q-84 -51 -227 -51z" />
<glyph unicode="_" horiz-adv-x="1024" d="M87 19q58 -19 185 -19h320q365 0 365 -183v-14q-100 49 -323 49h-252q-130 0 -187 25q-82 35 -108 142z" />
<glyph unicode="`" d="M876 1548q-3 54 166 95q61 -215 205 -360q-22 -2 -34 -2q-118 0 -235 123q-100 105 -102 144z" />
<glyph unicode="a" horiz-adv-x="1621" d="M247 321q0 286 168 524q185 265 460 265q151 0 327 -94q26 93 212 93q12 0 39 -1q-57 -87 -87 -238l-17 -85q-29 -145 -29 -332q0 -219 102 -219q137 0 373 261q160 176 291 379l78 -54q-145 -258 -348 -477q-275 -294 -484 -294q-216 0 -216 360q0 75 6 202 q-101 -208 -261 -393q-211 -243 -381 -243q-122 0 -184 119q-49 93 -49 227zM449 368q0 -202 132 -202q143 0 547 628q6 9 41 56q-210 137 -349 137q-181 0 -287 -231q-84 -184 -84 -388z" />
<glyph unicode="b" horiz-adv-x="1346" d="M254 1750q65 -62 208 -62q125 0 333 64l-236 -1184q-23 -115 -23 -212q0 -115 58 -192q65 -84 176 -84q174 0 281 162q95 143 95 325q0 100 -33 195q-100 33 -178 88q-109 75 -109 153q0 34 28 89q270 -21 411 -234q130 -62 274 -62q147 0 299 89l51 -81 q-174 -132 -390 -132q-99 0 -188 25q14 -49 14 -100q0 -247 -170 -432q-175 -190 -420 -190q-170 0 -280 100q-113 103 -113 272q0 119 44 341l168 848q-49 -9 -86 -9q-214 0 -214 223z" />
<glyph unicode="c" horiz-adv-x="1170" d="M263 419q0 281 206 486t487 205q91 0 163 -32q95 -42 95 -122q0 -110 -187 -165q10 24 10 46q0 162 -172 162q-168 0 -291 -187q-109 -167 -109 -344q0 -150 74 -251q83 -113 227 -113q368 0 862 763l84 -50q-196 -328 -422 -555q-317 -318 -594 -318q-201 0 -320 139 q-113 132 -113 336z" />
<glyph unicode="d" horiz-adv-x="1615" d="M247 319q0 287 165 525q185 266 460 266q149 0 325 -95l107 539q-88 -18 -146 -18q-95 0 -139 53q-33 40 -56 144q72 -49 221 -49q185 0 357 68l-218 -1096q-37 -186 -37 -313q0 -172 98 -172q122 0 381 291q203 228 311 405l82 -52q-136 -250 -371 -508 q-302 -332 -499 -332q-202 0 -202 324q0 134 25 286q-120 -216 -261 -376q-205 -234 -370 -234q-123 0 -184 117q-49 93 -49 227zM449 368q0 -202 132 -202q142 0 546 628q9 14 37 56q-208 137 -346 137q-180 0 -285 -232q-84 -184 -84 -387z" />
<glyph unicode="e" horiz-adv-x="1198" d="M248 408q0 282 180 488q188 214 466 214q121 0 198 -58q86 -64 86 -181q0 -211 -262 -345q-217 -110 -449 -110q0 -293 248 -293q253 0 544 264q224 203 397 481l85 -47q-173 -324 -455 -563q-332 -283 -649 -283q-189 0 -292 124q-97 116 -97 309zM475 512 q180 9 329 100q179 108 179 272q0 128 -114 128q-158 0 -274 -178q-96 -146 -120 -322z" />
<glyph unicode="f" horiz-adv-x="740" d="M133 722q24 131 79 167q45 30 187 30h38l33 165q67 336 214 484q182 184 403 184q73 0 134 -32q76 -39 76 -105q0 -58 -129 -133q-36 153 -164 153q-227 0 -325 -494l-44 -222h349q239 0 351 26q-55 -121 -177 -145q-23 -4 -249 -4h-299l-170 -858q-25 -126 -25 -217 q0 -59 26 -107q-100 -33 -154 -33q-83 0 -83 93q0 75 33 240l176 882h-20q-149 0 -260 -74z" />
<glyph unicode="g" horiz-adv-x="1462" d="M225 365q0 267 198 501q208 244 470 244q128 0 276 -73q22 105 83 134q30 14 168 28q-72 -145 -149 -748l-13 -102q429 258 662 527l84 -53q-220 -287 -753 -626q-2 -32 -4 -58q-13 -218 -39 -319q-41 -158 -151 -277q-194 -209 -472 -209q-132 0 -226 59 q-109 69 -109 194q0 131 135 241q67 54 248 150q163 86 415 230l35 393q-85 -175 -251 -326q-193 -176 -360 -176q-113 0 -181 77q-66 74 -66 189zM438 419q0 -148 109 -148q133 0 337 236q152 176 250 354q-130 138 -286 138q-170 0 -297 -212q-113 -187 -113 -368z M457 -403q0 -74 65 -116q56 -36 134 -36q382 0 382 630q-46 -28 -235 -134q-346 -195 -346 -344z" />
<glyph unicode="h" horiz-adv-x="1535" d="M215 1752q96 -72 223 -72q179 0 344 72l-164 -827q0 -1 -92 -372q-5 -21 -24 -114q298 671 608 671q149 0 202 -158q30 -91 32 -281l1 -120q3 -313 92 -317h3q96 0 307 271q136 177 248 362l83 -46q-119 -237 -292 -456q-242 -309 -409 -309q-151 0 -203 185 q-28 101 -28 306v89q0 302 -104 302q-86 0 -240 -200q-130 -170 -250 -398q-115 -220 -115 -291q0 -25 19 -49q-45 -25 -117 -25q-89 0 -89 79q0 55 63 333q3 13 26 129l205 1032q-67 -25 -135 -25q-194 0 -194 229z" />
<glyph unicode="i" horiz-adv-x="908" d="M330 240q0 43 20 143l22 110q49 245 49 334q0 57 -34 93q130 30 163 30q74 0 74 -104q0 -76 -29 -221l-39 -195q-29 -145 -29 -183q0 -124 105 -124q158 0 418 303q176 206 318 441l83 -49q-174 -305 -361 -519q-284 -324 -511 -324q-115 0 -183 76q-66 72 -66 189z M538 1196q0 70 23 126l14 -1q75 3 206 74q118 64 183 125q-44 -138 -156 -231q-170 -142 -230 -142q-40 0 -40 49z" />
<glyph unicode="j" horiz-adv-x="584" d="M-339 -531q0 68 132 160q-3 -23 -3 -35q0 -64 44 -113t107 -49q140 0 226 190q36 80 106 432l87 439q49 247 49 334q0 57 -33 93q129 30 163 30q74 0 74 -105q0 -73 -29 -220l-116 -586q-69 -348 -184 -486q-182 -219 -400 -219q-72 0 -139 31q-84 39 -84 104zM540 1196 q0 70 22 126l14 -1q75 5 206 74q120 64 184 125q-44 -137 -157 -231q-171 -142 -230 -142q-39 0 -39 49z" />
<glyph unicode="k" horiz-adv-x="1328" d="M274 69q0 73 33 239l245 1234q-92 -33 -157 -33q-117 0 -117 105q0 35 20 124q73 -73 176 -73q133 0 314 87l-221 -1128q114 137 281 286q225 200 325 200q47 0 106 -134q-111 -12 -290 -122q-158 -96 -255 -192q252 -398 440 -398q106 0 225 107q59 53 172 192 q132 163 218 307l83 -48q-137 -253 -306 -454q-246 -294 -430 -294q-145 0 -335 184q-158 152 -244 313l-48 -238q-25 -124 -25 -218q0 -58 26 -106q-102 -34 -154 -34q-82 0 -82 94z" />
<glyph unicode="l" horiz-adv-x="832" d="M258 1722v23q120 -68 271 -68t264 75l-232 -1203q-31 -161 -31 -223q0 -169 124 -169q153 0 372 295q39 52 268 418l80 -55q-155 -294 -322 -507q-262 -333 -464 -333q-128 0 -199 103q-62 90 -62 224q0 81 30 232l199 1002q-39 -6 -68 -6q-230 0 -230 192z" />
<glyph unicode="m" horiz-adv-x="2201" d="M382 87q0 13 30 291l23 213q12 111 12 207q0 120 -49 176q116 42 164 42q88 0 88 -104q0 -30 -24 -275l-28 -286q360 760 636 760q121 0 121 -175q0 -75 -52 -338l-60 -303q128 269 281 484q237 331 412 331q152 0 152 -178q0 -67 -45 -293l-31 -156q-28 -141 -28 -209 q0 -120 85 -120q192 0 590 714l84 -47q-434 -846 -758 -846q-207 0 -207 270q0 92 40 289l28 138q28 138 28 174q0 43 -44 43q-109 0 -387 -429q-253 -390 -253 -447q0 -6 4 -21q-20 -4 -49 -13q-17 -5 -45 -5q-93 0 -93 89q0 28 30 163q11 51 22 105l42 212q46 232 46 275 q0 67 -49 67q-94 0 -314 -373q-213 -361 -213 -472q0 -21 16 -41q-55 -24 -101 -24q-104 0 -104 112z" />
<glyph unicode="n" horiz-adv-x="1652" d="M382 87q0 32 26 288l22 217q15 148 15 214q0 106 -48 167q33 11 70 24q63 22 99 22q78 0 78 -114q0 -58 -15 -206l-6 -61l-26 -279q355 751 638 751q214 0 221 -440l2 -121q4 -224 22 -290q21 -81 78 -81q112 0 316 299q36 53 236 389l84 -49q-433 -817 -706 -817 q-127 0 -178 123q-48 114 -52 426l-1 86q-2 132 -8 172q-19 125 -86 125q-132 0 -425 -527l-93 -166q-77 -134 -77 -194q0 -24 13 -46q-58 -24 -98 -24q-101 0 -101 112z" />
<glyph unicode="o" horiz-adv-x="1373" d="M231 437q0 230 160.5 402.5t388.5 172.5q34 0 72 -9q-25 45 -25 76q0 48 33 92q244 -20 406 -250q166 -113 346 -113q117 0 253 79l50 -85q-159 -111 -326 -111q-111 0 -252 46q3 -24 3 -43q0 -280 -186 -494q-194 -225 -469 -225q-204 0 -329 129t-125 333zM439 411 q0 -135 73 -226q79 -99 211 -99q193 0 312 201q101 170 101 376q0 82 -26 159q-83 25 -153 80q-51 11 -85 11q-182 0 -311 -163q-122 -153 -122 -339z" />
<glyph unicode="p" horiz-adv-x="1252" d="M131 1313q73 -49 222 -49q185 0 356 68l-77 -386q170 164 352 164q168 0 273 -129q98 -120 98 -292q0 -277 -189 -481q-194 -208 -469 -208q-145 0 -241 62l-73 -370q-25 -127 -25 -218q0 -59 26 -107q-101 -33 -154 -33q-83 0 -83 94q0 73 33 239l292 1468 q-87 -18 -146 -18q-94 0 -138 53q-34 40 -57 143zM487 217q101 -118 248 -118q191 0 312 163q111 148 111 345q0 135 -57 229q-69 114 -195 114q-140 0 -304 -158z" />
<glyph unicode="q" horiz-adv-x="1302" d="M247 322q0 286 166 523q186 265 460 265q148 0 324 -94q29 92 225 92h29q-58 -97 -85 -233l-235 -1183q-25 -126 -25 -218q0 -59 26 -107q-101 -33 -154 -33q-82 0 -82 94q0 73 33 239l183 921q-345 -613 -633 -613q-122 0 -184 119q-48 94 -48 228zM449 368 q0 -202 131 -202q144 0 547 628q8 12 37 56q-209 137 -346 137q-180 0 -285 -232q-84 -184 -84 -387z" />
<glyph unicode="r" horiz-adv-x="1108" d="M297 65q0 50 36 229l50 249q46 229 46 329q0 58 -33 97q105 36 171 36q70 0 70 -89q0 -34 -50 -289l-57 -291q143 277 295 471q239 303 433 303q51 0 91 -28q44 -31 44 -80q0 -70 -152 -186q-38 79 -108 79q-127 0 -324 -270q-121 -166 -212 -346q-90 -179 -90 -249v-6 l1 -17q-68 -32 -109 -32q-102 0 -102 90z" />
<glyph unicode="s" horiz-adv-x="879" d="M223 4q0 99 171 212q79 52 253 136l-80 129q-146 235 -146 367q0 190 221 306q136 -52 136 -131q0 -112 -173 -215l203 -372q178 106 288 198q107 91 245 249l80 -49q-215 -288 -561 -482q34 -76 34 -145q0 -162 -135 -274q-128 -106 -293 -106q-88 0 -160 43 q-83 51 -83 134zM396 17q0 -82 119 -82q91 0 145 62q53 59 53 151q0 56 -23 114q-294 -158 -294 -245z" />
<glyph unicode="t" horiz-adv-x="900" d="M119 1031q53 98 85 123q45 37 140 37h151l20 69q41 142 98 199q69 70 204 70q15 0 48 -2q-78 -100 -162 -336h528q139 0 212 36q-25 -104 -70 -136q-41 -30 -151 -30h-562l-15 -49q-121 -411 -121 -622q0 -232 167 -232q92 0 194 77q97 73 138 161q27 -49 27 -86 q0 -112 -180 -228q-167 -107 -287 -107q-136 0 -210 130q-61 106 -61 253q0 173 99 535l46 168h-169q-106 0 -169 -30z" />
<glyph unicode="u" horiz-adv-x="1599" d="M313 252q0 159 106 580q29 115 29 144q0 30 -19 65l138 1h2q87 0 87 -69q0 -45 -58 -247q-16 -57 -23 -84l-15 -61q-44 -179 -44 -279q0 -148 102 -148q167 0 424 414q210 338 210 480q0 20 -12 40q82 23 139 23q88 0 88 -54q0 -11 -8 -38q-6 -19 -19 -73q-4 -17 -20 -81 q-14 -53 -19 -78l-10 -48q-33 -158 -33 -309q0 -220 106 -220q234 0 594 660l84 -50q-410 -789 -750 -789q-229 0 -229 397q0 75 8 188q-106 -219 -247 -393q-200 -248 -366 -248q-115 0 -182 83q-63 77 -63 194z" />
<glyph unicode="v" horiz-adv-x="1156" d="M223 1122q87 44 156 44q146 0 270 -434q82 -283 114 -552q153 194 264 408q137 263 154 457q150 -60 150 -136q0 -88 -193 -388q-144 -224 -262 -374q-80 -102 -138 -133t-186 -41q22 88 22 152q0 237 -98 528q-104 308 -253 469z" />
<glyph unicode="w" horiz-adv-x="1715" d="M249 1125q92 41 151 41q143 0 224 -426q43 -224 62 -530q122 158 224 353q127 246 127 390q0 9 -1 33q87 32 133 32q87 0 87 -66q0 -19 -35 -219q-9 -52 -12 -85l-6 -68q-7 -79 -7 -178q0 -279 128 -279q149 0 234 276q63 204 63 396q0 189 -95 227q90 70 167 70 q120 0 120 -186q0 -274 -192 -631q-168 -312 -369 -312q-228 0 -228 348q0 17 1 36l7 233q-121 -274 -209 -391q-159 -211 -361 -211q25 88 25 205q0 237 -54 493q-66 319 -184 449z" />
<glyph unicode="x" horiz-adv-x="1317" d="M299 -58q0 154 313 488q-61 103 -124 266q-72 188 -72 278q0 82 199 116q-7 -22 -7 -40q0 -182 156 -483q262 300 262 462q0 8 -1 15l-1 13q48 4 55 4h12q108 0 108 -58q0 -144 -384 -524q149 -232 318 -232q301 0 643 621l84 -48q-177 -315 -316 -478 q-240 -280 -472 -280q-227 0 -400 272q-204 -280 -253 -541q-120 74 -120 149z" />
<glyph unicode="y" horiz-adv-x="1178" d="M-35 -455q0 46 24 108q55 -34 136 -34q293 0 560 387q-39 243 -136 492q-113 286 -253 439q74 62 152 62q83 0 147 -117q22 -39 76 -187q105 -287 157 -520q338 535 366 935q175 -26 175 -117q0 -123 -204 -481q-159 -279 -293 -462q-164 -224 -338 -384 q-253 -234 -435 -234q-134 0 -134 113z" />
<glyph unicode="z" horiz-adv-x="1273" d="M295 -433q0 206 616 569q-81 37 -173 37q-147 0 -307 -74q-3 29 -3 42q0 128 91 163q55 79 205 261l256 310q-109 -31 -205 -42l-80 -9q-204 -23 -289 -111q24 191 93 247q64 52 261 52h89q194 0 270 66q36 -55 36 -114q0 -60 -87 -164q-53 -63 -200 -252l-165 -212 q65 9 110 9q155 0 271 -95q379 255 649 625l83 -51q-221 -352 -665 -670q34 -88 34 -145q0 -247 -167 -454q-178 -221 -419 -221q-118 0 -204 56q-100 65 -100 177zM468 -436q0 -59 51 -97q46 -35 107 -35q155 0 285 163q122 154 122 313q0 75 -41 148q-524 -335 -524 -492z " />
<glyph unicode="{" horiz-adv-x="1147" d="M430 738q0 21 6 64q62 -31 107 -31q173 0 259 359l22 92q127 530 456 530q132 0 144 -111q-34 7 -61 7q-147 0 -222 -108q-43 -64 -93 -246l-32 -117q-57 -207 -139 -313q-99 -128 -283 -186q245 -82 245 -268q0 -114 -63 -265l-30 -72q-45 -108 -45 -142 q0 -126 196 -126q48 0 104 14q-42 -115 -161 -115q-336 0 -336 240q0 62 44 169l61 148q61 144 61 211q0 82 -110 134l-40 19q-90 43 -90 113z" />
<glyph unicode="|" horiz-adv-x="617" d="M198 -209q0 22 29 168l255 1284q41 206 41 286q0 36 -10 74q161 -22 161 -111q0 -47 -30 -186l-17 -78l-252 -1265q-25 -125 -25 -196q0 -27 6 -64q-158 8 -158 88z" />
<glyph unicode="}" horiz-adv-x="871" d="M44 -192q33 -9 61 -9q126 0 195 81q64 76 121 292l13 49q69 259 133 358q71 111 233 211q-213 25 -213 176q0 105 73 271l33 75q67 152 67 204q0 131 -181 131q-59 0 -124 -21q28 126 151 126q350 0 350 -238q0 -72 -73 -254l-26 -65q-74 -185 -74 -237q0 -87 145 -87 q47 0 101 15q-14 -78 -31 -102q-22 -29 -76 -45l-17 -5q-90 -26 -142 -110q-48 -77 -92 -263q-8 -34 -20 -82l-24 -96q-120 -479 -457 -479q-116 0 -126 104z" />
<glyph unicode="~" d="M263 544q0 95 91 166q85 67 183 67q76 0 234 -87l80 -44q165 -91 229 -91q165 0 165 205q96 -36 96 -122q0 -101 -95 -172q-88 -65 -192 -65q-102 0 -277 99l-97 55q-120 68 -172 68q-66 0 -109 -53q-41 -49 -41 -116q0 -10 1 -29q-96 28 -96 119z" />
<glyph unicode="&#xa2;" d="M355 610q0 255 163 441q156 177 410 238l13 65q16 80 16 128q0 11 -2 36q105 -9 105 -62q0 -20 -13 -80q-11 -52 -16 -78h31q92 0 164 -40q88 -49 88 -134q0 -56 -174 -116q3 20 3 29q0 107 -134 149l-176 -904q31 -3 45 -3q153 0 331 161q6 -34 6 -52q0 -111 -158 -183 q-113 -52 -253 -68l-15 -73q-23 -113 -21 -182l1 -31q-13 -2 -19 -2q-31 0 -63 19q-37 21 -37 50q0 20 38 173q4 15 13 54q-346 79 -346 465zM557 652q0 -240 177 -341l173 872q-160 -51 -258 -208q-92 -148 -92 -323z" />
<glyph unicode="&#xa3;" d="M333 36q0 13 6 53q1 10 5 46l3 24q247 191 239 504l-2 77h-40q-115 0 -197 -35q29 84 64 109t124 25h43q-4 82 -4 109q0 235 181 404q177 165 414 165q170 0 170 -113q0 -56 -55 -133q-77 117 -222 117q-293 0 -293 -411q0 -23 5 -95q2 -29 2 -43h57q209 0 311 43 q-3 -10 -7 -25q-27 -95 -101 -113q-17 -4 -170 -4h-85q0 -319 -295 -570q308 34 495 34q170 0 224 -46q57 -49 68 -216q-149 77 -429 77q-138 0 -257 -17l-84 -12q-105 -15 -106 -15q-64 0 -64 61z" />
<glyph unicode="&#xa5;" d="M299 1500q105 73 159 73q192 0 450 -785q140 123 288 290q206 234 206 329q0 41 -33 72q85 38 134 38q82 0 82 -87q0 -123 -265 -399q-199 -205 -375 -339l-3 -13h50q276 0 362 21q-49 -81 -101 -101q-57 -22 -213 -20l-117 1l-30 -148h27q219 0 326 35 q-23 -146 -171 -146q-40 0 -75 2q-69 4 -93 4h-34l-26 -130q-19 -95 -19 -123t12 -60q-102 -51 -184 -51q-53 0 -53 42q0 19 21 125l39 197h-121q-145 0 -241 -37q51 148 177 148q36 0 77 -2q83 -4 99 -4h30l29 148h-33q-190 0 -274 -37q14 142 160 142q29 0 105 -4 q30 -2 40 -2h22l2 13q-51 228 -155 444q-131 274 -281 364z" />
<glyph unicode="&#xa8;" d="M745 1358l3 36q2 24 2 30q0 17 -5 33h23q148 0 148 -55q0 -44 -18 -119q-36 2 -68 2q-91 0 -85 73zM1140 1356l4 37q1 9 1 29q0 18 -4 34h22q148 0 148 -55q0 -43 -18 -119q-32 2 -68 2q-85 0 -85 72z" />
<glyph unicode="&#xa9;" horiz-adv-x="1795" d="M227 670q0 199 92 354q98 164 276 235q31 259 510 259q316 0 531 -178q229 -189 229 -499q0 -371 -268 -627q-265 -251 -638 -251q-311 0 -520 197q-212 201 -212 510zM344 672q0 -269 182 -433q175 -159 447 -159q321 0 549 212q235 217 235 535q0 271 -193 431 q-181 149 -458 149q-258 0 -430 -132q37 9 60 9q57 0 57 -50q0 -48 -29 -100q-41 13 -76 13q-156 0 -257 -166q-87 -143 -87 -309zM643 594q0 224 180.5 404t404.5 180q184 0 184 -102q0 -47 -47 -112q-52 128 -198 128q-155 0 -270 -163q-104 -148 -104 -309 q0 -213 227 -213q176 0 308 144l49 -54q-176 -201 -404 -201q-137 0 -231 80q-99 84 -99 218z" />
<glyph unicode="&#xab;" horiz-adv-x="1592" d="M507 561q363 198 489 450q10 -8 18 -13q45 -31 45 -67q0 -108 -347 -419q37 -98 109 -173q86 -89 177 -89h14q-63 -65 -122 -65q-194 0 -383 376zM1063 561q362 197 489 450q12 -9 19 -13q44 -31 44 -67q0 -108 -347 -419q37 -98 109 -173q86 -89 177 -89h14 q-63 -65 -122 -65q-194 0 -383 376z" />
<glyph unicode="&#xad;" horiz-adv-x="985" d="M498 519q57 176 183 176q23 0 50 -3l109 -12q27 -3 62 -3q80 0 115 44q-30 -195 -140 -195q-29 0 -62 4l-74 9q-82 10 -121 10q-62 0 -122 -30z" />
<glyph unicode="&#xae;" d="M426 1051q0 203 141 336q138 130 342 130q186 0 315 -118q133 -122 133 -306q0 -193 -137.5 -331.5t-330.5 -138.5t-325 116q-138 122 -138 312zM530 1053q0 -149 106 -242q101 -89 252 -89q155 0 262 103t107 257q0 147 -106 243q-102 94 -251 94q-153 0 -261.5 -106.5 t-108.5 -259.5zM694 876q0 7 24 129l58 296q101 31 157 31q164 0 164 -126q0 -110 -149 -165q80 -139 142 -176q-50 -39 -89 -39q-51 0 -106 98q-34 69 -67 139l-15 -76q-15 -76 -15 -103t18 -62h-23q-99 0 -99 54zM831 1080q164 16 164 106q0 61 -79 61q-20 0 -54 -15z" />
<glyph unicode="&#xb4;" d="M890 1283q52 46 83 83l47 57q70 85 117 117q66 45 155 45q71 0 125 -13q-71 -32 -180 -123l-41 -34q-159 -132 -306 -132z" />
<glyph unicode="&#xb8;" d="M446 -283q56 -19 90 -19q113 0 113 74q0 63 -147 86l113 142h102l-77 -95q141 -34 141 -122q0 -73 -70 -128q-65 -50 -140 -50q-118 0 -125 112z" />
<glyph unicode="&#xbb;" horiz-adv-x="1592" d="M505 169q0 123 331 381q-201 192 -201 331q0 43 42 82q118 -257 402 -428q-379 -194 -514 -467q-60 47 -60 101zM1061 169q0 123 331 381q-201 191 -201 331q0 43 42 82q118 -257 402 -428q-380 -194 -514 -467q-60 47 -60 101z" />
<glyph unicode="&#x2c6;" d="M659 1297q176 118 240 171l35 29q101 84 260 108q33 -200 135 -322q-108 0 -162 44q-38 31 -101 141q-202 -185 -329 -185q-31 0 -78 14z" />
<glyph unicode="&#x2da;" d="M766 1417q0 80 88 159q75 66 163 94q11 -28 11 -43q0 -8 -1 -20q156 -57 156 -161q0 -80 -72 -126q-62 -38 -147 -38q-71 0 -129 31q-69 38 -69 104zM871 1425q0 -50 88 -50q138 0 138 74q0 41 -103 103q-123 -76 -123 -127z" />
<glyph unicode="&#x2dc;" d="M742 1352q0 66 71 118q65 47 133 47q67 0 119 -34l29 -19q50 -33 91 -33q80 0 90 108q85 -24 85 -83q0 -67 -69 -122q-65 -51 -134 -51q-48 0 -136 52l-39 23q-41 24 -78 24q-73 0 -73 -92v-19q-89 27 -89 81z" />
<glyph unicode="&#x2000;" horiz-adv-x="878" />
<glyph unicode="&#x2001;" horiz-adv-x="1756" />
<glyph unicode="&#x2002;" horiz-adv-x="878" />
<glyph unicode="&#x2003;" horiz-adv-x="1756" />
<glyph unicode="&#x2004;" horiz-adv-x="585" />
<glyph unicode="&#x2005;" horiz-adv-x="439" />
<glyph unicode="&#x2006;" horiz-adv-x="292" />
<glyph unicode="&#x2007;" horiz-adv-x="292" />
<glyph unicode="&#x2008;" horiz-adv-x="219" />
<glyph unicode="&#x2009;" horiz-adv-x="351" />
<glyph unicode="&#x200a;" horiz-adv-x="97" />
<glyph unicode="&#x2010;" horiz-adv-x="985" d="M498 519q57 176 183 176q23 0 50 -3l109 -12q27 -3 62 -3q80 0 115 44q-30 -195 -140 -195q-29 0 -62 4l-74 9q-82 10 -121 10q-62 0 -122 -30z" />
<glyph unicode="&#x2011;" horiz-adv-x="985" d="M498 519q57 176 183 176q23 0 50 -3l109 -12q27 -3 62 -3q80 0 115 44q-30 -195 -140 -195q-29 0 -62 4l-74 9q-82 10 -121 10q-62 0 -122 -30z" />
<glyph unicode="&#x2012;" horiz-adv-x="985" d="M498 519q57 176 183 176q23 0 50 -3l109 -12q27 -3 62 -3q80 0 115 44q-30 -195 -140 -195q-29 0 -62 4l-74 9q-82 10 -121 10q-62 0 -122 -30z" />
<glyph unicode="&#x2013;" horiz-adv-x="1024" d="M463 475q37 165 121 199q41 17 254 17h15q297 0 389 65q-26 -164 -134 -199q-43 -14 -269 -14h-9q-240 0 -367 -68z" />
<glyph unicode="&#x2014;" horiz-adv-x="2048" d="M490 475q36 165 120 199q41 17 254 17h985q297 0 388 65q-26 -164 -134 -199q-42 -14 -268 -14h-979q-239 0 -366 -68z" />
<glyph unicode="&#x2018;" horiz-adv-x="584" d="M309 1326q0 143 100 279q108 147 247 147q70 0 83 -106q-33 7 -55 7q-77 0 -126 -66q-45 -60 -45 -140q0 -125 124 -210q-104 -71 -189 -71q-139 0 -139 160z" />
<glyph unicode="&#x2019;" horiz-adv-x="584" d="M296 1272q32 -7 55 -7q77 0 126 66q45 60 45 139q0 125 -124 210q105 72 189 72q139 0 139 -160q0 -143 -100 -279q-108 -147 -246 -147q-70 0 -84 106z" />
<glyph unicode="&#x201a;" horiz-adv-x="714" d="M193 -209q33 -7 55 -7q77 0 126 66q45 61 45 140q0 125 -124 210q105 72 189 72q139 0 139 -161q0 -142 -100 -279q-108 -147 -246 -147q-70 0 -84 106z" />
<glyph unicode="&#x201c;" horiz-adv-x="1044" d="M309 1326q0 143 100 279q108 147 247 147q70 0 83 -106q-33 7 -55 7q-77 0 -126 -66q-45 -60 -45 -140q0 -125 124 -210q-104 -71 -189 -71q-139 0 -139 160zM769 1326q0 143 100 279q107 147 246 147q71 0 84 -106q-33 7 -55 7q-77 0 -126 -66q-45 -60 -45 -140 q0 -125 124 -210q-104 -71 -189 -71q-139 0 -139 160z" />
<glyph unicode="&#x201d;" horiz-adv-x="1044" d="M302 1272q32 -7 55 -7q77 0 126 66q45 60 45 139q0 125 -124 210q105 72 189 72q139 0 139 -160q0 -143 -100 -279q-108 -147 -246 -147q-70 0 -84 106zM762 1272q32 -7 54 -7q78 0 127 66q45 60 45 140q0 125 -124 209q104 72 189 72q139 0 139 -160q0 -143 -100 -279 q-108 -147 -246 -147q-71 0 -84 106z" />
<glyph unicode="&#x201e;" horiz-adv-x="1173" d="M193 -209q33 -7 55 -7q77 0 126 66q45 61 45 140q0 125 -124 210q105 72 189 72q139 0 139 -161q0 -142 -100 -279q-108 -147 -246 -147q-70 0 -84 106zM653 -209q33 -7 55 -7q77 0 126 66q45 61 45 140q0 125 -124 210q104 72 188 72q140 0 140 -161q0 -143 -100 -279 q-109 -147 -247 -147q-70 0 -83 106z" />
<glyph unicode="&#x2022;" d="M634 562q0 71 69 121q63 45 136 45q143 0 143 -116q0 -71 -72 -125q-66 -49 -139 -49q-137 0 -137 124z" />
<glyph unicode="&#x2026;" horiz-adv-x="2048" d="M251 186q75 20 128 20q82 0 82 -78q0 -26 -18 -109q-74 -19 -111 -19q-73 0 -73 67v16l2 33l1 8q0 37 -11 62zM934 186q76 20 129 20q82 0 82 -78q0 -26 -18 -109q-75 -19 -111 -19q-74 0 -74 67l1 16l2 33v8q0 37 -11 62zM1617 186q76 20 128 20q83 0 83 -78 q0 -25 -18 -109q-75 -19 -111 -19q-74 0 -74 66q0 1 1 17l2 33v8q0 37 -11 62z" />
<glyph unicode="&#x202f;" horiz-adv-x="351" />
<glyph unicode="&#x2039;" horiz-adv-x="1036" d="M507 561q363 198 489 450q10 -8 18 -13q45 -31 45 -67q0 -108 -347 -419q37 -98 109 -173q86 -89 177 -89h14q-63 -65 -122 -65q-194 0 -383 376z" />
<glyph unicode="&#x203a;" horiz-adv-x="1036" d="M505 169q0 123 331 381q-201 192 -201 331q0 43 42 82q118 -257 402 -428q-379 -194 -514 -467q-60 47 -60 101z" />
<glyph unicode="&#x205f;" horiz-adv-x="439" />
<glyph unicode="&#x2122;" horiz-adv-x="1949" d="M317 1369q4 15 10 37q32 117 71 149q43 35 149 31l275 -7q166 0 299 37q-20 -173 -180 -173q-23 0 -68 3.5t-68 3.5h-27l-58 -292q-25 -126 -25 -189q0 -74 33 -122q-51 -20 -101 -20q-111 0 -111 87q0 27 25 153l76 383h-22q-137 0 -278 -81zM1123 923q0 50 50 245 l48 187q29 113 29 187q0 61 -25 110q68 26 105 26q80 0 114 -79q11 -27 34 -149l25 -135q27 -145 59 -218l118 222q5 10 46 97q42 91 84.5 121t156.5 50l57 10q-58 -253 -58 -436q0 -237 98 -332q-83 -64 -145 -64q-84 0 -109 107q-11 47 -11 172q0 130 29 364l-170 -377 q-70 -143 -139 -143q-85 0 -133 219q-6 27 -41 280l-56 -281q-22 -110 -22 -152q0 -71 39 -125q-21 -2 -35 -2q-148 0 -148 96z" />
<glyph unicode="&#x25fc;" horiz-adv-x="1090" d="M0 0v1090h1090v-1090h-1090z" />
</font>
</defs>
</svg>
